<?xml version="1.0" encoding="UTF-8" standalone="no"?>
<!-- Created with Inkscape (http://www.inkscape.org/) -->

<svg
   xmlns:dc="http://purl.org/dc/elements/1.1/"
   xmlns:cc="http://creativecommons.org/ns#"
   xmlns:rdf="http://www.w3.org/1999/02/22-rdf-syntax-ns#"
   xmlns:svg="http://www.w3.org/2000/svg"
   xmlns="http://www.w3.org/2000/svg"
   xmlns:sodipodi="http://sodipodi.sourceforge.net/DTD/sodipodi-0.dtd"
   xmlns:inkscape="http://www.inkscape.org/namespaces/inkscape"
   width="210mm"
   height="297mm"
   viewBox="0 0 210 297"
   version="1.1"
   id="svg8"
   inkscape:export-filename="C:\Users\Twoducky\Downloads\lynt.png"
   inkscape:export-xdpi="96"
   inkscape:export-ydpi="96"
   sodipodi:docname="lint_blue.svg"
   inkscape:version="0.92.0 r15299">
  <defs
     id="defs2" />
  <sodipodi:namedview
     id="base"
     pagecolor="#ffffff"
     bordercolor="#666666"
     borderopacity="1.0"
     inkscape:pageopacity="0.0"
     inkscape:pageshadow="2"
     inkscape:zoom="1.1200123"
     inkscape:cx="256.10486"
     inkscape:cy="602.93423"
     inkscape:document-units="mm"
     inkscape:current-layer="layer3"
     showgrid="false"
     inkscape:window-width="1920"
     inkscape:window-height="1058"
     inkscape:window-x="-8"
     inkscape:window-y="-8"
     inkscape:window-maximized="1" />
  <metadata
     id="metadata5">
    <rdf:RDF>
      <cc:Work
         rdf:about="">
        <dc:format>image/svg+xml</dc:format>
        <dc:type
           rdf:resource="http://purl.org/dc/dcmitype/StillImage" />
      </cc:Work>
    </rdf:RDF>
  </metadata>
  <g
     inkscape:label="Layer 1"
     inkscape:groupmode="layer"
     id="layer1">
    <path
       style="fill:none;stroke:#ffffff;stroke-width:2;stroke-linecap:butt;stroke-linejoin:miter;stroke-opacity:1;stroke-miterlimit:4;stroke-dasharray:none"
       d="m 2.3358563,197.04103 c 0,0 41.8813587,1.2167 103.0674037,37.48759"
       id="path3767"
       inkscape:connector-curvature="0" />
    <path
       style="fill:none;stroke:#ffffff;stroke-width:2;stroke-linecap:butt;stroke-linejoin:miter;stroke-opacity:1;stroke-miterlimit:4;stroke-dasharray:none"
       d="M 2.3358561,197.04103 V 136.36919"
       id="path3769"
       inkscape:connector-curvature="0" />
    <path
       style="fill:none;stroke:#ffffff;stroke-width:2;stroke-linecap:butt;stroke-linejoin:miter;stroke-opacity:1;stroke-miterlimit:4;stroke-dasharray:none"
       d="m 2.3358536,136.36919 c 0,0 41.8813594,1.2167 103.0674064,37.48759"
       id="path3767-2"
       inkscape:connector-curvature="0" />
    <path
       style="fill:none;stroke:#ffffff;stroke-width:2;stroke-linecap:butt;stroke-linejoin:miter;stroke-opacity:1;stroke-miterlimit:4;stroke-dasharray:none"
       d="m 208.47066,197.04102 c 0,0 -41.88135,1.2167 -103.0674,37.4876"
       id="path3767-4"
       inkscape:connector-curvature="0" />
    <path
       style="fill:none;stroke:#ffffff;stroke-width:2;stroke-linecap:butt;stroke-linejoin:miter;stroke-opacity:1;stroke-miterlimit:4;stroke-dasharray:none"
       d="M 208.47066,197.04102 V 136.36918"
       id="path3769-4"
       inkscape:connector-curvature="0" />
    <path
       style="fill:none;stroke:#ffffff;stroke-width:2;stroke-linecap:butt;stroke-linejoin:miter;stroke-opacity:1;stroke-miterlimit:4;stroke-dasharray:none"
       d="m 208.47066,136.36918 c 0,0 -41.88135,1.2167 -103.0674,37.48759"
       id="path3767-2-9"
       inkscape:connector-curvature="0" />
    <path
       style="fill:none;stroke:#ffffff;stroke-width:2;stroke-linecap:butt;stroke-linejoin:miter;stroke-opacity:1;stroke-miterlimit:4;stroke-dasharray:none"
       d="m 2.3358561,136.36919 c 0,0 67.5781379,0.0116 103.0674039,17.82972"
       id="path4652"
       inkscape:connector-curvature="0" />
    <path
       style="fill:none;stroke:#ffffff;stroke-width:2;stroke-linecap:butt;stroke-linejoin:miter;stroke-opacity:1;stroke-miterlimit:4;stroke-dasharray:none"
       d="m 208.47067,136.36919 c 0,0 -67.57814,0.0116 -103.06741,17.82972"
       id="path4652-6"
       inkscape:connector-curvature="0" />
    <path
       style="fill:#292929;fill-opacity:1;stroke-width:7.55905522;stroke:#ffffff;stroke-miterlimit:4;stroke-dasharray:none;stroke-opacity:1"
       d="m 394.85336,654.1959 c -1.78766,-1.07898 -8.24763,-4.82282 -14.35548,-8.31966 C 262.15858,578.12523 142.83935,533.39621 38.674853,517.73755 l -8.396603,-1.26223 6.771454,0.2458 c 153.762136,5.58138 276.728726,27.51552 353.087486,62.98189 l 8.28502,3.84815 7.42475,-3.45996 c 66.56728,-31.0205 167.82535,-51.71881 295.61786,-60.42764 20.8355,-1.41991 68.3242,-3.57264 64.19339,-2.90998 -0.74486,0.11949 -4.88899,0.71639 -9.20918,1.32645 -18.89566,2.66828 -40.13842,6.92471 -63.38081,12.69966 -90.83132,22.56854 -189.22342,63.97733 -285.82167,120.28942 -4.80356,2.80025 -8.82581,5.09073 -8.93832,5.08996 -0.11252,-5.4e-4 -1.6672,-0.88419 -3.45487,-1.96317 z"
       id="path4669"
       inkscape:connector-curvature="0"
       transform="scale(0.26458333)" />
  </g>
  <g
     inkscape:groupmode="layer"
     id="layer3"
     inkscape:label="lints"
     transform="translate(0,-61.892921)">
    <path
       style="fill:#00ccef;fill-opacity:1;stroke:#ffffff;stroke-width:2;stroke-miterlimit:4;stroke-dasharray:none;stroke-opacity:1"
       d="m 104.68175,112.02747 c 0.70593,0.0352 1.42813,0.0215 2.10522,0.25454 1.60894,0.48291 3.27466,0.73287 4.91327,1.09137 1.3661,0.29114 2.7186,0.68087 3.98131,1.28604 1.27178,0.56574 2.52973,1.16178 3.79184,1.7486 1.05284,0.80008 1.76084,1.96738 2.26802,3.17023 0.60109,1.45696 0.98296,2.99037 1.46392,4.48849 0.45849,1.51274 0.91697,3.02548 1.37546,4.53822 0.20509,1.19121 -0.21339,2.40067 -0.85411,3.39487 -1.85678,3.19457 -3.57245,6.46776 -5.32309,9.72089 -0.35772,0.51535 -0.86893,0.89641 -1.36096,1.27469 -1.31084,0.93492 -2.88558,1.44675 -4.47751,1.61879 -2.71164,0.41277 -5.43421,0.82381 -8.07532,1.58197 -1.09397,0.23547 -2.2689,0.42944 -3.35229,0.0406 -2.35583,-0.90516 -4.40528,-2.4093 -6.51526,-3.76121 -1.56638,-1.05314 -3.13766,-2.10145 -4.64584,-3.23743 -1.52309,-1.61253 -2.28431,-3.85776 -2.23797,-6.0597 0.0272,-3.18166 0.049,-6.36342 0.0571,-9.54514 0.0145,-0.88896 0.108,-1.82454 0.60654,-2.58754 0.58954,-1.00163 1.55976,-1.69042 2.50676,-2.32527 2.21512,-1.562 4.3485,-3.25296 6.70283,-4.6065 1.81195,-1.01499 3.78423,-1.76606 5.8386,-2.09952 0.41052,-0.0278 0.82167,-0.0223 1.23155,0.0129 z"
       id="path4767-6"
       inkscape:connector-curvature="0" />
    <path
       style="fill:#00ccef;fill-opacity:1;stroke:#ffffff;stroke-width:2;stroke-miterlimit:4;stroke-dasharray:none;stroke-opacity:1"
       d="m 48.63521,149.88854 c 0.42371,0.0212 0.85719,0.0123 1.26361,0.15276 0.96576,0.28985 1.96557,0.43988 2.94913,0.65506 0.81996,0.17479 1.63175,0.40868 2.38969,0.77193 0.76337,0.33957 1.51841,0.69734 2.27597,1.04956 0.63196,0.48023 1.05692,1.18089 1.36135,1.90286 0.36078,0.87452 0.59,1.79491 0.87868,2.69415 0.2752,0.90799 0.55041,1.81597 0.82561,2.72397 0.123,0.71502 -0.12792,1.44098 -0.51265,2.03771 -1.11452,1.91748 -2.14431,3.88215 -3.19511,5.83479 -0.21472,0.30934 -0.52156,0.53806 -0.81689,0.76512 -0.78679,0.56115 -1.73202,0.86837 -2.68755,0.97165 -1.62762,0.24776 -3.26175,0.49446 -4.84705,0.94955 -0.65664,0.14141 -1.36186,0.25776 -2.01215,0.0244 -1.41406,-0.54329 -2.6442,-1.44612 -3.91067,-2.2576 -0.94017,-0.6321 -1.88333,-1.26138 -2.78858,-1.9432 -0.9142,-0.96791 -1.37111,-2.31557 -1.34329,-3.63726 0.0166,-1.90971 0.0294,-3.8195 0.0342,-5.72927 0.0107,-0.53359 0.0649,-1.09516 0.36409,-1.55312 0.35385,-0.60119 0.93621,-1.01463 1.50462,-1.3957 1.32961,-0.93757 2.61013,-1.95255 4.02326,-2.76498 1.08757,-0.60922 2.27141,-1.06006 3.50452,-1.26018 0.24639,-0.0166 0.49319,-0.0123 0.73921,0.008 z"
       id="path4767-6-7"
       inkscape:connector-curvature="0" />
    <path
       style="fill:#00ccef;fill-opacity:1;stroke:#ffffff;stroke-width:2;stroke-miterlimit:4;stroke-dasharray:none;stroke-opacity:1"
       d="m 159.90029,183.35546 c 0.44304,0.0222 0.89629,0.0135 1.32123,0.15976 1.00977,0.30308 2.05518,0.45995 3.08357,0.68494 0.85736,0.18272 1.70619,0.42731 2.49867,0.80712 0.79816,0.35506 1.58765,0.72913 2.37975,1.09742 0.66076,0.50213 1.10511,1.23472 1.42341,1.98963 0.37724,0.91439 0.61691,1.87676 0.91876,2.81698 0.28774,0.94939 0.57549,1.89879 0.86323,2.84818 0.12872,0.7476 -0.13392,1.50666 -0.53604,2.13062 -1.16531,2.00491 -2.24206,4.05916 -3.34076,6.10083 -0.22451,0.32343 -0.54534,0.56258 -0.85414,0.79999 -0.82269,0.58675 -1.81099,0.90797 -2.81008,1.01595 -1.70183,0.25905 -3.41051,0.51702 -5.06807,0.99284 -0.68658,0.14779 -1.42396,0.26952 -2.10389,0.0255 -1.47852,-0.56808 -2.76476,-1.51207 -4.08898,-2.36052 -0.98306,-0.66095 -1.96919,-1.31888 -2.91573,-2.03182 -0.95589,-1.01202 -1.43363,-2.42113 -1.40455,-3.80305 0.017,-1.99681 0.0308,-3.99368 0.0358,-5.99053 0.009,-0.55792 0.0678,-1.14508 0.38067,-1.62394 0.36999,-0.62862 0.9789,-1.0609 1.57324,-1.45934 1.39021,-0.98031 2.72911,-2.04155 4.20669,-2.89104 1.13718,-0.637 2.37498,-1.10837 3.6643,-1.31765 0.25765,-0.0175 0.51568,-0.014 0.77292,0.009 z"
       id="path4767-6-3"
       inkscape:connector-curvature="0" />
  </g>
  <g
     inkscape:groupmode="layer"
     id="layer2"
     inkscape:label="lint">
    <path
       style="fill:none;stroke:#ffffff;stroke-width:2;stroke-linecap:butt;stroke-linejoin:miter;stroke-opacity:1;stroke-miterlimit:4;stroke-dasharray:none"
       d="m 105.38166,234.24653 0.0216,-60.38976"
       id="path4500"
       inkscape:connector-curvature="0" />
    <path
       style="fill:#474747;fill-opacity:1;stroke:#ffffff;stroke-width:2;stroke-miterlimit:4;stroke-dasharray:none;stroke-opacity:1"
       d="m 105.40326,203.94002 v -30.08324 l 2.42138,-1.39262 c 26.18838,-15.06175 50.14091,-25.19889 73.99984,-31.31807 8.72211,-2.23699 18.3211,-4.00058 23.91854,-4.39447 l 2.18515,-0.15377 V 166.72 196.84214 l -2.30326,0.16897 c -5.35001,0.39246 -14.62589,2.05444 -22.56295,4.04264 -24.88163,6.23276 -49.9065,16.84796 -77.48153,32.86659 -0.0974,0.0566 -0.17717,-13.43453 -0.17717,-29.98032 z"
       id="path4506"
       inkscape:connector-curvature="0" />
    <path
       style="fill:#00bbdb;fill-opacity:1;stroke:#ffffff;stroke-width:2;stroke-miterlimit:4;stroke-dasharray:none;stroke-opacity:1"
       d="m 105.40326,203.94002 v -30.08325 l -2.42138,-1.39261 C 76.793505,157.40241 52.840977,147.26526 28.982042,141.14608 20.259929,138.90909 10.660936,137.1455 5.0634963,136.75161 l -2.18515,-0.15377 v 30.12215 30.12215 l 2.30327,0.16896 c 5.3499997,0.39247 14.6258907,2.05445 22.5629457,4.04265 24.881626,6.23275 49.906505,16.84796 77.481528,32.86659 0.0974,0.0566 0.17717,-13.43454 0.17717,-29.98032 z"
       id="path4506-5"
       inkscape:connector-curvature="0" />
  </g>
</svg>
